<svg viewBox="0 0 24 24" stroke="currentColor" fill="none" stroke-width="2" stroke-linecap="round" stroke-linejoin="round">
  <title>Settings</title>
  <circle cx="12" cy="12" r="3"/>
  <path d="M19.4 15C19.2669 15.3016 19.2272 15.6362 19.286 15.9606C19.3448 16.285 19.4995 16.5842 19.73 16.82L19.79 16.88C19.976 17.0657 20.1235 17.2863 20.2241 17.5291C20.3248 17.7719 20.3766 18.0322 20.3766 18.295C20.3766 18.5578 20.3248 18.8181 20.2241 19.0609C20.1235 19.3037 19.976 19.5243 19.79 19.71C19.6043 19.896 19.3837 20.0435 19.1409 20.1441C18.8981 20.2448 18.6378 20.2966 18.375 20.2966C18.1122 20.2966 17.8519 20.2448 17.6091 20.1441C17.3663 20.0435 17.1457 19.896 16.96 19.71L16.9 19.65C16.6642 19.4195 16.365 19.2648 16.0406 19.206C15.7162 19.1472 15.3816 19.1869 15.08 19.32C14.7842 19.4468 14.532 19.6572 14.3543 19.9255C14.1766 20.1938 14.0813 20.5082 14.08 20.83V21C14.08 21.5304 13.8693 22.0391 13.4942 22.4142C13.1191 22.7893 12.6104 23 12.08 23C11.5496 23 11.0409 22.7893 10.6658 22.4142C10.2907 22.0391 10.08 21.5304 10.08 21V20.91C10.0723 20.579 9.96512 20.2573 9.77251 19.9887C9.5799 19.7201 9.31074 19.5176 9 19.405C8.69838 19.2719 8.36381 19.2322 8.03941 19.291C7.71502 19.3498 7.41568 19.5045 7.18 19.735L7.12 19.795C6.93425 19.981 6.71368 20.1285 6.47088 20.2291C6.22808 20.3298 5.96783 20.3816 5.705 20.3816C5.44217 20.3816 5.18192 20.3298 4.93912 20.2291C4.69632 20.1285 4.47575 19.981 4.29 19.795C4.10405 19.6093 3.95653 19.3887 3.85588 19.1459C3.75523 18.9031 3.70343 18.6428 3.70343 18.38C3.70343 18.1172 3.75523 17.8569 3.85588 17.6141C3.95653 17.3713 4.10405 17.1507 4.29 16.965L4.35 16.905C4.58054 16.6693 4.73519 16.37 4.794 16.0456C4.85282 15.7212 4.81312 15.3866 4.68 15.085C4.55324 14.7892 4.34276 14.537 4.07447 14.3593C3.80618 14.1816 3.49179 14.0863 3.17 14.085H3C2.46957 14.085 1.96086 13.8743 1.58579 13.4992C1.21071 13.1241 1 12.6154 1 12.085C1 11.5546 1.21071 11.0459 1.58579 10.6708C1.96086 10.2957 2.46957 10.085 3 10.085H3.09C3.42099 10.0773 3.742 9.97012 4.01062 9.77751C4.27925 9.5849 4.48167 9.31574 4.595 9.005C4.72812 8.70338 4.76782 8.36881 4.709 8.04442C4.65019 7.72002 4.49554 7.42068 4.265 7.185L4.205 7.125C4.01905 6.93925 3.87153 6.71868 3.77088 6.47588C3.67023 6.23308 3.61843 5.97283 3.61843 5.71C3.61843 5.44717 3.67023 5.18692 3.77088 4.94412C3.87153 4.70132 4.01905 4.48075 4.205 4.295C4.39075 4.10905 4.61132 3.96153 4.85412 3.86088C5.09692 3.76023 5.35717 3.70843 5.62 3.70843C5.88283 3.70843 6.14308 3.76023 6.38588 3.86088C6.62868 3.96153 6.84925 4.10905 7.035 4.295L7.095 4.355C7.33068 4.58554 7.63002 4.74019 7.95442 4.799C8.27881 4.85782 8.61338 4.81812 8.915 4.685H9C9.29577 4.55824 9.54802 4.34776 9.72569 4.07947C9.90337 3.81118 9.99872 3.49679 10 3.175V3C10 2.46957 10.2107 1.96086 10.5858 1.58579C10.9609 1.21071 11.4696 1 12 1C12.5304 1 13.0391 1.21071 13.4142 1.58579C13.7893 1.96086 14 2.46957 14 3V3.09C14.0013 3.41279 14.0966 3.72718 14.2743 3.99547C14.452 4.26376 14.7042 4.47424 15 4.601C15.3016 4.73412 15.6362 4.77382 15.9606 4.715C16.285 4.65619 16.5843 4.50154 16.82 4.271L16.88 4.211C17.0657 4.02505 17.2863 3.87753 17.5291 3.77688C17.7719 3.67623 18.0322 3.62443 18.295 3.62443C18.5578 3.62443 18.8181 3.67623 19.0609 3.77688C19.3037 3.87753 19.5243 4.02505 19.71 4.211C19.896 4.39675 20.0435 4.61732 20.1441 4.86012C20.2448 5.10292 20.2966 5.36317 20.2966 5.626C20.2966 5.88883 20.2448 6.14908 20.1441 6.39188C20.0435 6.63468 19.896 6.85525 19.71 7.041L19.65 7.101C19.4195 7.33668 19.2648 7.63602 19.206 7.96042C19.1472 8.28481 19.1869 8.61938 19.32 8.921V9.001C19.4468 9.29677 19.6572 9.54902 19.9255 9.72669C20.1938 9.90437 20.5082 9.99972 20.83 10.001H21C21.5304 10.001 22.0391 10.2117 22.4142 10.5868C22.7893 10.9619 23 11.4706 23 12.001C23 12.5314 22.7893 13.0401 22.4142 13.4152C22.0391 13.7903 21.5304 14.001 21 14.001H20.91C20.5872 14.0023 20.2728 14.0976 20.0045 14.2753C19.7362 14.453 19.5258 14.7052 19.399 15.001V15.001Z"/>
</svg>